<?xml version="1.0" encoding="UTF-8"?>
<svg id="Layer_2" data-name="Layer 2" xmlns="http://www.w3.org/2000/svg" viewBox="0 0 298 300">
  <defs>
    <style>
      .cls-1 {
        fill: #1d6cb5;
      }

      .cls-1, .cls-2, .cls-3, .cls-4, .cls-5, .cls-6, .cls-7 {
        stroke-width: 0px;
      }

      .cls-2 {
        fill: #ea365b;
      }

      .cls-3 {
        fill: none;
      }

      .cls-4 {
        fill: #9b2c50;
      }

      .cls-5 {
        fill: #e7e7e7;
      }

      .cls-6 {
        fill: #26c3ee;
      }

      .cls-7 {
        fill: #fff;
      }
    </style>
  </defs>
  <g id="Image">
    <g>
      <path class="cls-3" d="M298,150c0-2.82-.08-5.61-.24-8.39v16.78c.15-2.78.24-5.57.24-8.39Z"/>
      <path class="cls-7" d="M0,150c0,30.16,8.85,58.23,24.06,81.75h249.87c13.79-21.32,22.35-46.39,23.83-73.36v-16.78c-1.47-26.76-9.9-51.65-23.5-72.86H23.74C8.72,92.16,0,120.06,0,150ZM159.76,174.75v-21h15l6.55,6h3.45l12,11v4h16v-89h31v6h10v109l-12,11h-60l-6.55-6h-3.45l-12-11v-20ZM75.76,85.75h55l6.55,6h2.45l12,11v17h-67v14h58v6h9v28h-67v10h58v6h9v28h-86l-6.55-6h-2.45l-12-11v-109h31Z"/>
      <path class="cls-2" d="M149,300c43.77,0,83.13-19,110.39-49.25H38.61c27.26,30.25,66.62,49.25,110.39,49.25Z"/>
      <path class="cls-6" d="M149,0c-44.01,0-83.55,19.21-110.83,49.75h221.65C232.55,19.21,193.01,0,149,0Z"/>
      <path class="cls-5" d="M23.74,68.75h250.53c-1.98-3.08-4.06-6.08-6.25-9H29.98c-2.19,2.92-4.27,5.92-6.25,9Z"/>
      <path class="cls-1" d="M38.17,49.75c-2.87,3.21-5.6,6.55-8.19,10h238.03c-2.59-3.45-5.32-6.79-8.19-10H38.17Z"/>
      <path class="cls-5" d="M30.36,240.75h237.27c2.21-2.92,4.31-5.92,6.3-9H24.06c1.99,3.08,4.1,6.08,6.3,9Z"/>
      <path class="cls-4" d="M38.61,250.75h220.77c2.89-3.21,5.64-6.55,8.25-10H30.36c2.61,3.45,5.36,6.79,8.25,10Z"/>
      <polygon class="cls-4" points="75.76 205.75 59.22 205.75 65.76 211.75 84.76 211.75 151.76 211.75 151.76 183.75 142.76 183.75 142.76 205.75 75.76 205.75"/>
      <polygon class="cls-4" points="75.76 161.75 75.76 177.75 84.76 177.75 84.76 167.75 151.76 167.75 151.76 139.75 142.76 139.75 142.76 161.75 75.76 161.75"/>
      <polygon class="cls-4" points="142.76 113.75 75.76 113.75 75.76 133.75 84.76 133.75 84.76 119.75 151.76 119.75 151.76 102.75 139.76 91.75 137.31 91.75 142.76 96.75 142.76 113.75"/>
      <polygon class="cls-1" points="186.76 174.75 196.76 174.75 196.76 170.75 184.76 159.75 181.31 159.75 186.76 164.75 186.76 174.75"/>
      <polygon class="cls-1" points="243.76 194.75 231.76 205.75 212.76 205.75 186.76 205.75 175.22 205.75 181.76 211.75 196.76 211.75 222.76 211.75 241.76 211.75 253.76 200.75 253.76 180.75 253.76 91.75 243.76 91.75 243.76 174.75 243.76 194.75"/>
      <polygon class="cls-2" points="56.76 205.75 59.22 205.75 75.76 205.75 142.76 205.75 142.76 183.75 142.76 177.75 84.76 177.75 75.76 177.75 75.76 161.75 142.76 161.75 142.76 139.75 142.76 133.75 84.76 133.75 75.76 133.75 75.76 113.75 142.76 113.75 142.76 96.75 137.31 91.75 130.76 85.75 75.76 85.75 44.76 85.75 44.76 194.75 56.76 205.75"/>
      <polygon class="cls-6" points="175.22 205.75 186.76 205.75 212.76 205.75 231.76 205.75 243.76 194.75 243.76 174.75 243.76 91.75 243.76 85.75 212.76 85.75 212.76 174.75 196.76 174.75 186.76 174.75 186.76 164.75 181.31 159.75 174.76 153.75 159.76 153.75 159.76 174.75 159.76 194.75 171.76 205.75 175.22 205.75"/>
    </g>
  </g>
</svg>