<?xml version="1.0" encoding="UTF-8"?>
<svg id="Layer_2" data-name="Layer 2" xmlns="http://www.w3.org/2000/svg" viewBox="0 0 300.47 300.5">
  <defs>
    <style>
      .cls-1 {
        fill: #1d6cb5;
      }

      .cls-1, .cls-2, .cls-3, .cls-4, .cls-5, .cls-6, .cls-7 {
        stroke-width: 0px;
      }

      .cls-2 {
        fill: #ea365b;
      }

      .cls-3 {
        fill: none;
      }

      .cls-4 {
        fill: #9b2c50;
      }

      .cls-5 {
        fill: #e7e7e7;
      }

      .cls-6 {
        fill: #26c3ee;
      }

      .cls-7 {
        fill: #fff;
      }
    </style>
  </defs>
  <g id="Image">
    <polygon class="cls-3" points=".5 251 1 251 1 242 1 241 .5 241 .5 251"/>
    <polygon class="cls-7" points=".5 241 1 241 1 232 300 232 300 69 0 69 0 300 .5 300 .5 251 .5 241"/>
    <polygon class="cls-7" points=".33 .25 300 .25 300 0 0 0 0 50 .33 50 .33 .25"/>
    <polygon class="cls-2" points=".97 251 .47 251 .47 300 .47 300.08 .47 300.5 300.47 300.5 300.47 251 299.97 251 .97 251"/>
    <polygon class="cls-6" points=".47 50 300.14 50 300.47 50 300.47 .25 300.14 .25 .47 .25 .47 50"/>
    <rect class="cls-5" x=".47" y="60" width="300" height="9"/>
    <polygon class="cls-1" points="300.47 59.75 300.47 59 300.47 50 .81 50 .47 50 .47 59 .47 60 300.47 60 300.47 59.75"/>
    <polygon class="cls-5" points="299.47 232 .47 232 .47 241 299.47 241 300.47 241 300.47 232 299.47 232"/>
    <polygon class="cls-4" points=".47 241 .47 242 .47 251 299.47 251 299.97 251 300.47 251 300.47 242 300.47 241 299.47 241 .47 241"/>
    <g>
      <polygon class="cls-4" points="78 206 61.45 206 68 212 87 212 154 212 154 184 145 184 145 206 78 206"/>
      <polygon class="cls-4" points="78 162 78 178 87 178 87 168 154 168 154 140 145 140 145 162 78 162"/>
      <polygon class="cls-4" points="139.55 92 145 97 145 114 78 114 78 134 87 134 87 120 154 120 154 103 142 92 139.55 92"/>
      <polygon class="cls-1" points="189 175 199 175 199 171 187 160 183.55 160 189 165 189 175"/>
      <polygon class="cls-1" points="246 92 246 175 246 195 234 206 215 206 189 206 177.45 206 184 212 199 212 225 212 244 212 256 201 256 181 256 92 246 92"/>
      <polygon class="cls-2" points="78 114 145 114 145 97 139.55 92 133 86 78 86 47 86 47 195 59 206 61.45 206 78 206 145 206 145 184 145 178 87 178 78 178 78 162 145 162 145 140 145 134 87 134 78 134 78 114"/>
      <polygon class="cls-6" points="215 206 234 206 246 195 246 175 246 92 246 86 215 86 215 175 199 175 189 175 189 165 183.55 160 177 154 162 154 162 175 162 195 174 206 177.45 206 189 206 215 206"/>
    </g>
  </g>
</svg>