<?xml version="1.0" encoding="UTF-8"?>
<svg id="Layer_2" data-name="Layer 2" xmlns="http://www.w3.org/2000/svg" viewBox="0 0 209 126">
  <defs>
    <style>
      .cls-1 {
        fill: #1d6cb5;
      }

      .cls-1, .cls-2, .cls-3, .cls-4 {
        stroke-width: 0px;
      }

      .cls-2 {
        fill: #ea365b;
      }

      .cls-3 {
        fill: #9b2c50;
      }

      .cls-4 {
        fill: #26c3ee;
      }
    </style>
  </defs>
  <g id="Image">
    <g>
      <polygon class="cls-3" points="31 120 14.45 120 21 126 40 126 107 126 107 98 98 98 98 120 31 120"/>
      <polygon class="cls-3" points="31 76 31 92 40 92 40 82 107 82 107 54 98 54 98 76 31 76"/>
      <polygon class="cls-3" points="92.55 6 98 11 98 28 31 28 31 48 40 48 40 34 107 34 107 17 95 6 92.55 6"/>
      <polygon class="cls-1" points="142 89 152 89 152 85 140 74 136.55 74 142 79 142 89"/>
      <polygon class="cls-1" points="199 6 199 89 199 109 187 120 168 120 142 120 130.45 120 137 126 152 126 178 126 197 126 209 115 209 95 209 6 199 6"/>
      <polygon class="cls-2" points="31 28 98 28 98 11 92.55 6 86 0 31 0 0 0 0 109 12 120 14.45 120 31 120 98 120 98 98 98 92 40 92 31 92 31 76 98 76 98 54 98 48 40 48 31 48 31 28"/>
      <polygon class="cls-4" points="168 120 187 120 199 109 199 89 199 6 199 0 168 0 168 89 152 89 142 89 142 79 136.55 74 130 68 115 68 115 89 115 109 127 120 130.45 120 142 120 168 120"/>
    </g>
  </g>
</svg>